<svg width="119" height="50" viewBox="0 0 119 50" fill="none" xmlns="http://www.w3.org/2000/svg">
<g filter="url(#filter0_d_160_601)">
<path d="M4.24416 32V0.499998H10.0942V27.05H26.5642V32H4.24416ZM41.2229 32.315C38.7629 32.315 36.5729 31.79 34.6529 30.74C32.7329 29.66 31.2179 28.19 30.1079 26.33C28.9979 24.47 28.4429 22.355 28.4429 19.985C28.4429 17.585 28.9979 15.47 30.1079 13.64C31.2179 11.78 32.7329 10.325 34.6529 9.275C36.5729 8.225 38.7629 7.7 41.2229 7.7C43.7129 7.7 45.9179 8.225 47.8379 9.275C49.7879 10.325 51.3029 11.765 52.3829 13.595C53.4929 15.425 54.0479 17.555 54.0479 19.985C54.0479 22.355 53.4929 24.47 52.3829 26.33C51.3029 28.19 49.7879 29.66 47.8379 30.74C45.9179 31.79 43.7129 32.315 41.2229 32.315ZM41.2229 27.5C42.6029 27.5 43.8329 27.2 44.9129 26.6C45.9929 26 46.8329 25.13 47.4329 23.99C48.0629 22.85 48.3779 21.515 48.3779 19.985C48.3779 18.425 48.0629 17.09 47.4329 15.98C46.8329 14.84 45.9929 13.97 44.9129 13.37C43.8329 12.77 42.6179 12.47 41.2679 12.47C39.8879 12.47 38.6579 12.77 37.5779 13.37C36.5279 13.97 35.6879 14.84 35.0579 15.98C34.4279 17.09 34.1129 18.425 34.1129 19.985C34.1129 21.515 34.4279 22.85 35.0579 23.99C35.6879 25.13 36.5279 26 37.5779 26.6C38.6579 27.2 39.8729 27.5 41.2229 27.5ZM70.3168 41.045C68.0968 41.045 65.9218 40.745 63.7918 40.145C61.6918 39.575 59.9668 38.735 58.6168 37.625L61.1368 33.395C62.1868 34.265 63.5068 34.955 65.0968 35.465C66.7168 36.005 68.3518 36.275 70.0018 36.275C72.6418 36.275 74.5768 35.66 75.8068 34.43C77.0368 33.23 77.6518 31.415 77.6518 28.985V24.71L78.1018 19.265L77.9218 13.82V7.97H83.2768V28.355C83.2768 32.705 82.1668 35.9 79.9468 37.94C77.7268 40.01 74.5168 41.045 70.3168 41.045ZM69.5968 30.92C67.3168 30.92 65.2468 30.44 63.3868 29.48C61.5568 28.49 60.1018 27.125 59.0218 25.385C57.9718 23.645 57.4468 21.605 57.4468 19.265C57.4468 16.955 57.9718 14.93 59.0218 13.19C60.1018 11.45 61.5568 10.1 63.3868 9.14C65.2468 8.18 67.3168 7.7 69.5968 7.7C71.6368 7.7 73.4668 8.105 75.0868 8.915C76.7068 9.725 77.9968 10.985 78.9568 12.695C79.9468 14.405 80.4418 16.595 80.4418 19.265C80.4418 21.935 79.9468 24.14 78.9568 25.88C77.9968 27.59 76.7068 28.865 75.0868 29.705C73.4668 30.515 71.6368 30.92 69.5968 30.92ZM70.4518 26.15C71.8618 26.15 73.1218 25.865 74.2318 25.295C75.3418 24.695 76.1968 23.885 76.7968 22.865C77.4268 21.815 77.7418 20.615 77.7418 19.265C77.7418 17.915 77.4268 16.73 76.7968 15.71C76.1968 14.66 75.3418 13.865 74.2318 13.325C73.1218 12.755 71.8618 12.47 70.4518 12.47C69.0418 12.47 67.7668 12.755 66.6268 13.325C65.5168 13.865 64.6468 14.66 64.0168 15.71C63.4168 16.73 63.1168 17.915 63.1168 19.265C63.1168 20.615 63.4168 21.815 64.0168 22.865C64.6468 23.885 65.5168 24.695 66.6268 25.295C67.7668 25.865 69.0418 26.15 70.4518 26.15ZM101.472 32.315C99.0119 32.315 96.8219 31.79 94.9019 30.74C92.9819 29.66 91.4669 28.19 90.3569 26.33C89.2469 24.47 88.6919 22.355 88.6919 19.985C88.6919 17.585 89.2469 15.47 90.3569 13.64C91.4669 11.78 92.9819 10.325 94.9019 9.275C96.8219 8.225 99.0119 7.7 101.472 7.7C103.962 7.7 106.167 8.225 108.087 9.275C110.037 10.325 111.552 11.765 112.632 13.595C113.742 15.425 114.297 17.555 114.297 19.985C114.297 22.355 113.742 24.47 112.632 26.33C111.552 28.19 110.037 29.66 108.087 30.74C106.167 31.79 103.962 32.315 101.472 32.315ZM101.472 27.5C102.852 27.5 104.082 27.2 105.162 26.6C106.242 26 107.082 25.13 107.682 23.99C108.312 22.85 108.627 21.515 108.627 19.985C108.627 18.425 108.312 17.09 107.682 15.98C107.082 14.84 106.242 13.97 105.162 13.37C104.082 12.77 102.867 12.47 101.517 12.47C100.137 12.47 98.9069 12.77 97.8269 13.37C96.7769 13.97 95.9369 14.84 95.3069 15.98C94.6769 17.09 94.3619 18.425 94.3619 19.985C94.3619 21.515 94.6769 22.85 95.3069 23.99C95.9369 25.13 96.7769 26 97.8269 26.6C98.9069 27.2 100.122 27.5 101.472 27.5Z" fill="#37D3D3"/>
</g>
<defs>
<filter id="filter0_d_160_601" x="0.244141" y="0.5" width="118.053" height="48.5449" filterUnits="userSpaceOnUse" color-interpolation-filters="sRGB">
<feFlood flood-opacity="0" result="BackgroundImageFix"/>
<feColorMatrix in="SourceAlpha" type="matrix" values="0 0 0 0 0 0 0 0 0 0 0 0 0 0 0 0 0 0 127 0" result="hardAlpha"/>
<feOffset dy="4"/>
<feGaussianBlur stdDeviation="2"/>
<feComposite in2="hardAlpha" operator="out"/>
<feColorMatrix type="matrix" values="0 0 0 0 0 0 0 0 0 0 0 0 0 0 0 0 0 0 0.25 0"/>
<feBlend mode="normal" in2="BackgroundImageFix" result="effect1_dropShadow_160_601"/>
<feBlend mode="normal" in="SourceGraphic" in2="effect1_dropShadow_160_601" result="shape"/>
</filter>
</defs>
</svg>
